<svg version="1.1" viewBox="0.0 0.0 256.0 256.0" fill="none" stroke="none" stroke-linecap="square" stroke-miterlimit="10" xmlns:xlink="http://www.w3.org/1999/xlink" xmlns="http://www.w3.org/2000/svg"><clipPath id="p.0"><path d="m0 0l256.0 0l0 256.0l-256.0 0l0 -256.0z" clip-rule="nonzero"/></clipPath><g clip-path="url(#p.0)"><path fill="#000000" fill-opacity="0.0" d="m0 0l256.0 0l0 256.0l-256.0 0z" fill-rule="evenodd"/><path fill="#ffffff" d="m2.944882 26.305178l0 0c0 -12.901535 10.458761 -23.360296 23.360296 -23.360296l203.38965 0c6.195526 0 12.137314 2.4611669 16.518219 6.842072c4.380905 4.380905 6.8420715 10.322688 6.8420715 16.518223l0 203.38965c0 12.901535 -10.4587555 23.36029 -23.36029 23.36029l-203.38965 0c-12.901535 0 -23.360296 -10.4587555 -23.360296 -23.36029z" fill-rule="evenodd"/><path fill="#000000" fill-opacity="0.0" d="m10.566929 12.677165l234.86615 0l0 230.64566l-234.86615 0z" fill-rule="evenodd"/><path fill="#000000" d="m92.16326 67.81312q11.609375 0 19.96875 1.9375q8.359375 1.921875 12.84375 7.5625q4.4999924 5.625 4.4999924 16.71875q0 7.5625 -2.0312424 14.25q-2.03125 6.6875 -6.78125 13.828125q-4.75 7.1250076 -12.84375 16.093758l-34.84375 38.90625q4.578125 -0.359375 9.765625 -0.53125q5.1875 -0.171875 9.9375 -0.171875l41.187492 0l0 14.953125l-79.71875 0l0 -9.6875q0 -1.921875 0.515625 -3.59375q0.53125 -1.671875 1.765625 -3.09375l35.20313 -39.765625q11.609375 -12.500008 17.0625 -22.171883q5.46875 -9.6875 5.109375 -18.3125q-0.171875 -5.984375 -2.90625 -8.703125q-2.71875 -2.734375 -7.734375 -3.609375q-5.015625 -0.890625 -12.0625 -0.890625q-5.625 0 -10.734375 0.1875q-5.109375 0.171875 -10.828125 0.796875q-5.718754 0.609375 -13.281254 1.828125l-1.0625 -11.953125q8.28125 -1.9375 14.515629 -2.90625q6.25 -0.96875 11.609375 -1.3125q5.375 -0.359375 10.84375 -0.359375z" fill-rule="nonzero"/><path fill="#000000" d="m187.2472 66.81312q15.5 0 15.5 15.71875l0 42.828125l-9.984375 0l0 -40.015625q0 -5.75 -1.875 -7.90625q-1.875 -2.171875 -6.328125 -2.171875q-5.28125 0 -10.5625 2.578125q-5.28125 2.578125 -12.5625 7.03125l-0.46875 -7.15625q6.6875 -5.15625 13.25 -8.03125q6.578125 -2.875 13.03125 -2.875zm-26.28125 1.40625l0.828125 10.90625l0.703125 1.765625l0 44.46875l-9.96875 0l0 -57.140625l8.4375 0z" fill-rule="nonzero"/></g></svg>